<?xml version="1.0" standalone="no"?>
<!DOCTYPE svg PUBLIC "-//W3C//DTD SVG 20010904//EN"
 "http://www.w3.org/TR/2001/REC-SVG-20010904/DTD/svg10.dtd">
<svg version="1.0" xmlns="http://www.w3.org/2000/svg"
 width="2000.000000pt" height="824.000000pt" viewBox="0 0 2000.000000 824.000000"
 preserveAspectRatio="xMidYMid meet">

<g transform="translate(0.000000,824.000000) scale(0.100000,-0.100000)"
fill="#000000" stroke="none">
<path d="M4006 7469 c-62 -15 -154 -69 -193 -113 -20 -23 -46 -63 -59 -91 -28
-60 -288 -1151 -305 -1280 -18 -138 -6 -385 24 -515 67 -281 191 -510 387
-713 129 -134 240 -218 390 -296 129 -67 250 -110 397 -143 90 -20 132 -22
520 -26 369 -3 430 -1 480 13 110 31 212 123 248 224 8 23 146 594 306 1269
325 1362 317 1322 269 1447 -32 82 -122 173 -205 206 l-60 24 -1080 2 c-631 1
-1096 -3 -1119 -8z"/>
<path d="M6770 7065 l0 -415 80 0 80 0 0 165 0 165 170 0 170 0 0 85 0 85
-170 0 -170 0 0 80 0 80 200 0 200 0 0 85 0 85 -280 0 -280 0 0 -415z"/>
<path d="M8258 7461 c-73 -24 -115 -50 -169 -106 -196 -201 -136 -542 117
-666 156 -77 381 -30 472 99 l21 29 -58 57 -58 57 -26 -34 c-58 -77 -194 -105
-283 -59 -79 40 -144 143 -144 227 0 46 33 128 66 165 96 106 263 108 357 5
l32 -35 58 58 58 59 -48 48 c-100 100 -263 140 -395 96z"/>
<path d="M8792 7188 l3 -293 29 -62 c61 -132 165 -191 318 -180 132 9 220 75
267 202 19 52 21 76 21 340 l0 285 -80 0 -80 0 0 -270 c0 -292 -3 -312 -54
-360 -22 -20 -39 -25 -94 -28 -83 -4 -124 18 -152 81 -18 38 -20 67 -20 310
l0 267 -81 0 -80 0 3 -292z"/>
<path d="M9530 7065 l0 -415 265 0 265 0 0 80 0 80 -185 0 -185 0 0 335 0 335
-80 0 -80 0 0 -415z"/>
<path d="M10150 7065 l0 -415 198 0 c181 0 203 2 263 24 167 59 254 173 266
351 13 187 -52 322 -187 394 -99 53 -144 61 -352 61 l-188 0 0 -415z m436 221
c61 -28 108 -83 123 -142 34 -133 -15 -251 -126 -305 -41 -19 -65 -23 -158
-23 l-110 -1 -3 248 -2 247 112 0 c98 0 120 -3 164 -24z"/>
<path d="M11720 7065 l0 -415 189 0 c157 0 199 3 250 19 121 38 200 104 250
210 24 51 26 66 26 186 0 122 -2 134 -29 192 -31 69 -98 138 -164 172 -81 41
-146 51 -339 51 l-183 0 0 -415z m401 233 c52 -15 117 -73 140 -122 29 -63 26
-169 -6 -233 -46 -91 -137 -133 -292 -133 l-83 0 0 250 0 250 101 0 c56 0 119
-5 140 -12z"/>
<path d="M12530 7065 l0 -415 285 0 285 0 0 80 0 80 -200 0 -200 0 0 85 0 85
165 0 165 0 0 85 0 85 -165 0 -165 0 0 80 0 80 200 0 200 0 0 85 0 85 -285 0
-285 0 0 -415z"/>
<path d="M7460 7165 c-84 -170 -174 -356 -201 -412 l-48 -103 94 0 93 0 18 48
c10 26 22 53 27 60 7 9 54 12 172 12 l163 0 24 -60 23 -60 92 0 c51 0 93 2 93
4 0 5 -359 747 -382 791 l-16 30 -152 -310z m249 -227 c1 -5 -42 -8 -94 -8
-58 0 -95 4 -95 10 0 6 21 52 46 102 l47 93 48 -95 c26 -52 48 -98 48 -102z"/>
<path d="M11094 7194 c-75 -153 -165 -339 -200 -411 l-63 -133 93 0 93 0 26
60 26 60 167 -2 167 -3 20 -57 21 -58 93 0 c51 0 93 2 93 4 0 7 -387 807 -394
813 -3 3 -67 -120 -142 -273z m235 -256 c1 -5 -42 -8 -94 -8 -58 0 -95 4 -95
10 0 6 21 52 46 102 l47 93 48 -95 c26 -52 48 -98 48 -102z"/>
<path d="M6770 5045 l0 -1115 740 0 740 0 0 220 0 220 -517 2 -518 3 -3 893
-2 892 -220 0 -220 0 0 -1115z"/>
<path d="M8372 5428 l4 -733 27 -100 c33 -121 108 -276 178 -368 96 -127 244
-223 414 -269 111 -30 423 -33 528 -4 276 74 466 246 566 511 68 179 65 136
68 953 l4 742 -226 0 -225 0 0 -708 c0 -622 -2 -715 -16 -763 -40 -133 -110
-219 -222 -272 -65 -31 -71 -32 -202 -32 -119 0 -142 3 -195 24 -110 44 -213
176 -244 311 -7 29 -11 300 -11 743 l0 697 -225 0 -226 0 3 -732z"/>
<path d="M11300 6145 c-385 -70 -728 -365 -849 -730 -158 -478 -1 -978 403
-1277 203 -151 421 -214 706 -205 273 9 456 76 662 244 62 50 178 175 178 192
0 9 -300 321 -308 321 -4 0 -31 -31 -60 -70 -86 -113 -214 -196 -352 -231 -33
-8 -104 -14 -175 -13 -107 0 -130 4 -205 30 -202 71 -370 242 -433 439 -30 95
-32 311 -3 395 64 187 196 335 371 415 118 54 234 72 363 56 202 -26 354 -119
476 -292 l16 -24 155 155 c85 85 155 160 155 166 0 17 -103 131 -176 194 -139
120 -348 215 -527 239 -106 15 -305 12 -397 -4z"/>
<path d="M12640 5045 l0 -1115 220 0 220 0 0 1115 0 1115 -220 0 -220 0 0
-1115z"/>
<path d="M13878 5050 c-307 -609 -558 -1111 -558 -1114 0 -3 117 -5 261 -4
l261 3 61 153 62 152 469 -2 470 -3 61 -152 60 -153 263 0 262 0 -556 1113
c-306 611 -557 1113 -558 1114 0 0 -252 -497 -558 -1107z m821 -342 c1 -5
-118 -8 -264 -8 -146 0 -265 2 -265 5 0 3 60 124 132 270 l133 265 132 -262
c73 -145 132 -266 132 -270z"/>
<path d="M15780 5046 l0 -1116 225 0 225 0 2 601 3 601 595 -552 c327 -304
619 -575 648 -603 l52 -51 0 1117 0 1117 -225 0 -225 0 -2 -599 -3 -599 -570
530 c-313 291 -605 561 -647 600 l-78 70 0 -1116z"/>
<path d="M18675 6145 c-223 -42 -404 -137 -575 -301 -197 -190 -303 -411 -331
-690 -56 -549 296 -1051 838 -1195 111 -30 344 -37 473 -15 469 81 833 454
906 929 42 273 -19 561 -166 784 -150 228 -390 403 -645 469 -127 33 -372 42
-500 19z m383 -451 c217 -55 418 -257 477 -479 19 -73 22 -228 5 -310 -17 -85
-79 -209 -145 -288 -142 -171 -341 -258 -555 -243 -191 13 -344 94 -480 253
-172 202 -199 525 -63 751 47 78 164 196 238 241 70 43 173 80 250 91 74 11
198 3 273 -16z"/>
<path d="M13685 3579 c-49 -27 -114 -56 -143 -65 l-53 -16 -67 40 c-169 100
-321 94 -549 -22 -119 -60 -116 -44 -33 -190 40 -69 76 -125 79 -124 3 2 53
26 111 55 148 73 156 73 238 25 139 -84 255 -92 418 -30 50 19 125 54 167 78
l76 43 -30 51 c-16 28 -49 86 -72 128 -23 43 -44 77 -47 77 -3 -1 -45 -23 -95
-50z"/>
<path d="M6750 1915 l0 -1145 230 0 230 0 0 460 0 460 480 0 480 0 0 230 0
230 -480 0 -480 0 0 225 0 225 570 0 570 0 0 230 0 230 -800 0 -800 0 0 -1145z"/>
<path d="M8590 1915 l0 -1145 805 0 805 0 0 225 0 225 -575 0 -575 0 0 235 0
235 480 0 480 0 0 230 0 230 -480 0 -480 0 0 225 0 225 573 2 572 3 0 225 0
225 -802 3 -803 2 0 -1145z"/>
<path d="M10430 1915 l0 -1145 230 0 230 0 0 1145 0 1145 -230 0 -230 0 0
-1145z"/>
<path d="M11808 2318 l-3 -743 -28 -70 c-53 -134 -134 -215 -257 -255 -52 -17
-99 -23 -232 -27 l-168 -6 0 -225 0 -225 208 6 c178 4 221 8 303 30 311 81
502 285 612 652 20 68 21 93 24 838 l4 767 -230 0 -230 0 -3 -742z"/>
<path d="M15345 3049 c-354 -45 -685 -272 -859 -590 -160 -292 -176 -680 -42
-999 72 -170 227 -362 387 -478 288 -210 692 -269 1039 -152 171 57 300 138
435 274 227 228 335 493 335 820 0 313 -113 581 -340 806 -253 252 -591 365
-955 319z m309 -464 c227 -48 449 -263 512 -495 28 -103 24 -274 -9 -375 -76
-234 -286 -429 -512 -475 -76 -16 -213 -16 -290 0 -220 43 -441 244 -511 463
-34 108 -42 252 -20 357 41 198 205 398 392 482 123 55 300 72 438 43z"/>
<path d="M12770 1910 l-570 -1140 267 0 268 0 64 160 65 160 480 -2 480 -3 62
-155 62 -155 266 -3 c146 -1 266 1 266 4 0 12 -1128 2274 -1134 2274 -3 0
-262 -513 -576 -1140z m715 -70 c74 -148 135 -272 135 -275 0 -3 -124 -5 -275
-5 l-275 0 137 275 c76 151 139 275 140 275 2 0 64 -121 138 -270z"/>
</g>
</svg>
